<?xml version="1.0" standalone="no"?>
<!DOCTYPE svg PUBLIC "-//W3C//DTD SVG 1.1//EN" "http://www.w3.org/Graphics/SVG/1.1/DTD/svg11.dtd">
<svg t="1541474835687" class="icon" style="" viewBox="0 0 1170 1024" version="1.1" xmlns="http://www.w3.org/2000/svg" p-id="1946" xmlns:xlink="http://www.w3.org/1999/xlink" width="146.25" height="128">
  <path d="M283.209143 224.768C127.049143 224.768 0 352.548571 0 509.805714c0 141.897143 202.605714 360.96 242.614857 404.699429 40.082286 43.812571 40.082286 43.812571 81.261714-0.146286 40.521143-44.690286 242.541714-262.875429 242.541715-404.48 0-157.257143-127.049143-285.110857-283.209143-285.110857z m-2.633143 426.422857a139.849143 139.849143 0 0 1-139.922286-139.483428c0-76.873143 62.756571-139.483429 139.922286-139.483429 77.165714 0 139.995429 62.610286 139.995429 139.483429a139.849143 139.849143 0 0 1-139.995429 139.483428z m591.213714-162.816c28.672-31.670857 171.739429-186.221714 171.739429-286.500571 0-111.323429-89.965714-201.874286-200.557714-201.874286a201.435429 201.435429 0 0 0-200.557715 201.874286c0 100.498286 143.36 255.634286 171.812572 286.646857 28.379429 30.939429 28.379429 30.939429 57.563428-0.146286z m-129.755428-285.184a99.035429 99.035429 0 0 1 198.217143 0 99.035429 99.035429 0 1 1-198.217143 0z m413.988571 531.748572c-20.406857-41.545143-62.317714-77.385143-124.635428-106.642286a699.392 699.392 0 0 0-153.892572-48.859429c-22.674286-4.242286-32.329143-7.753143-36.352-13.312a29.769143 29.769143 0 0 0-23.844571-12.653714h-2.56a29.769143 29.769143 0 0 0-24.868572 46.153143c5.851429 8.850286 13.677714 16.384 23.405715 22.454857 17.627429 10.898286 37.302857 14.555429 53.028571 17.408l9.142857 1.828571c27.282286 5.851429 80.457143 19.163429 129.755429 42.276572 48.713143 22.893714 81.846857 49.883429 95.670857 78.189714 11.702857 23.917714 10.459429 50.029714-3.949714 79.945143a58.075429 58.075429 0 0 1-6.436572 10.24l-14.774857 19.090286-0.292571 0.365714c-15.36 20.333714-79.945143 67.949714-181.76 84.992-60.708571 10.093714-125.805714 8.338286-193.755429-5.266286-75.117714-14.994286-153.746286-44.617143-234.057143-88.064a29.842286 29.842286 0 0 0-40.009143 11.337143l-0.804571 1.389714a29.696 29.696 0 0 0 11.483428 40.96c85.796571 46.372571 170.203429 78.116571 251.318858 94.354286a642.413714 642.413714 0 0 0 125.878857 12.873143c30.72 0 60.854857-2.413714 90.038857-7.314286a460.507429 460.507429 0 0 0 146.651428-50.029714c32.256-17.993143 59.977143-39.789714 73.947429-58.368l14.628571-19.017143c5.12-6.509714 9.581714-13.531429 13.165715-21.065143 22.820571-47.177143 24.137143-92.086857 3.876571-133.339428z" fill="#0387dc"></path>
</svg>
