<?xml version="1.0" standalone="no"?>
<!DOCTYPE svg PUBLIC "-//W3C//DTD SVG 1.1//EN" "http://www.w3.org/Graphics/SVG/1.1/DTD/svg11.dtd">
<svg t="1541573735298" class="icon" style="" viewBox="0 0 1024 1024" version="1.1" xmlns="http://www.w3.org/2000/svg" xmlns:xlink="http://www.w3.org/1999/xlink" width="128" height="128">
  <path d="M944.276 214.262c-50.79-50.786-118.323-78.74-190.146-78.74s-139.356 27.954-190.147 78.74a268.524 268.524 0 0 0-57.313 84.69H157.957c-62.966 0-114.309 51.205-114.309 114.309v362.854c0 62.966 51.205 114.31 114.31 114.31h602.398c63.104 0 114.447-51.344 114.447-114.31V644.772a269.43 269.43 0 0 0 69.473-50.217c50.786-50.79 78.741-118.323 78.741-190.147s-27.955-139.361-78.74-190.146zM96.374 413.399c0-33.905 27.678-61.583 61.583-61.583h332.4a271.672 271.672 0 0 0 2.213 115.138H96.374V413.4zM821.939 776.11c0 33.905-27.679 61.583-61.583 61.583H157.957c-33.905 0-61.583-27.678-61.583-61.583V568.668h444.902a272.998 272.998 0 0 0 22.707 25.877c50.79 50.79 118.324 78.74 190.147 78.74 23.194 0 45.926-2.96 67.81-8.617V776.11z m16.44-172.657c-0.2 0.082-0.394 0.16-0.588 0.246a214.876 214.876 0 0 1-83.661 16.87c-119.153 0-216.161-97.008-216.161-216.16 0-119.153 97.008-216.162 216.16-216.162 119.154 0 216.162 97.009 216.162 216.161 0 89.283-54.471 166.124-131.911 199.045z m5.566-162.099H774.61v-33.766h62.413c11.346 0 20.48-9.272 20.48-20.48a20.435 20.435 0 0 0-20.48-20.48h-36.076l44.519-48.574c7.613-8.442 7.06-21.447-1.245-29.06-8.442-7.614-21.447-7.061-29.06 1.243l-60.893 66.422-60.892-66.427c-7.747-8.304-20.756-8.857-29.061-1.244-8.305 7.747-8.858 20.757-1.244 29.061l44.518 48.574h-36.352c-11.346 0-20.48 9.134-20.48 20.48s9.134 20.48 20.48 20.48h62.413v33.766h-69.33c-11.346 0-20.48 9.134-20.48 20.48s9.134 20.48 20.48 20.48h69.33v45.256c0 11.346 9.134 20.48 20.48 20.48s20.48-9.273 20.48-20.618v-45.113h69.335c11.346 0 20.48-9.134 20.48-20.48s-9.134-20.48-20.48-20.48z" fill="#fff6" />
</svg>
